# Blender v2.78 (sub 0) OBJ File: ''
# www.blender.org
mtllib gen.mtl
o Cube.003_Cube.005
v -0.123424 0.000496 -0.487472
v -0.123424 0.071510 -0.487472
v -0.265459 0.071510 -0.487472
v -0.265459 0.000496 -0.487472
v -0.265459 0.071510 -0.700523
v -0.265459 0.000496 -0.700523
v -0.155699 0.055374 -0.700523
v -0.155699 0.016633 -0.700523
v -0.155699 0.016633 -0.690479
v -0.155699 0.055374 -0.690479
v -0.123424 0.000496 -0.700523
v -0.123424 0.071510 -0.700523
v -0.233184 0.055374 -0.700523
v -0.233184 0.016633 -0.700523
v -0.233184 0.016633 -0.690479
v -0.233184 0.055374 -0.690479
vn 0.0000 0.0000 1.0000
vn -1.0000 0.0000 0.0000
vn 1.0000 0.0000 0.0000
vn 0.0000 -1.0000 -0.0000
vn 0.0000 1.0000 0.0000
vn -0.0000 0.0000 -1.0000
usemtl Material.017
s off
f 1//1 2//1 3//1 4//1
f 4//2 3//2 5//2 6//2
f 7//2 8//2 9//2 10//2
f 11//3 12//3 2//3 1//3
f 4//4 6//4 11//4 1//4
f 5//5 3//5 2//5 12//5
f 13//6 14//6 6//6 5//6
f 14//6 8//6 11//6 6//6
f 7//6 13//6 5//6 12//6
f 8//6 7//6 12//6 11//6
f 15//6 16//6 10//6 9//6
f 8//5 14//5 15//5 9//5
f 13//4 7//4 10//4 16//4
f 14//3 13//3 16//3 15//3
