# 3ds Max Wavefront OBJ Exporter v0.97b - (c)2007 guruware
# File Created: 29.05.2019 13:05:19

#
# object default004
#

v  0.1575 0.1200 -0.0018
v  0.1575 0.5277 -0.0018
v  0.1575 0.5277 0.0035
v  0.1575 0.1200 0.0035
v  -0.1575 0.1200 -0.0018
v  -0.1575 0.5277 -0.0018
v  -0.1575 0.1200 0.0035
v  -0.1575 0.5277 0.0035
v  0.0101 0.0109 -0.0006
v  0.0101 0.1320 -0.0006
v  0.0102 0.1320 0.0010
v  0.0102 0.0109 0.0010
v  0.0095 0.0109 -0.0021
v  0.0095 0.1320 -0.0021
v  0.0085 0.0109 -0.0035
v  0.0085 0.1320 -0.0035
v  0.0073 0.0109 -0.0047
v  0.0073 0.1320 -0.0047
v  0.0057 0.0109 -0.0057
v  0.0057 0.1320 -0.0057
v  0.0040 0.0109 -0.0065
v  0.0040 0.1320 -0.0065
v  0.0021 0.0109 -0.0069
v  0.0021 0.1320 -0.0069
v  0.0001 0.0109 -0.0071
v  0.0001 0.1320 -0.0071
v  -0.0019 0.0109 -0.0069
v  -0.0019 0.1320 -0.0069
v  -0.0038 0.0109 -0.0065
v  -0.0038 0.1320 -0.0065
v  -0.0056 0.0109 -0.0057
v  -0.0056 0.1320 -0.0057
v  -0.0071 0.0109 -0.0047
v  -0.0071 0.1320 -0.0047
v  -0.0084 0.0109 -0.0035
v  -0.0084 0.1320 -0.0035
v  -0.0093 0.0109 -0.0021
v  -0.0093 0.1320 -0.0021
v  -0.0099 0.0109 -0.0006
v  -0.0099 0.1320 -0.0006
v  -0.0101 0.0109 0.0010
v  -0.0101 0.1320 0.0010
v  -0.0099 0.0109 0.0026
v  -0.0099 0.1320 0.0026
v  -0.0093 0.0109 0.0041
v  -0.0093 0.1320 0.0041
v  -0.0084 0.0109 0.0055
v  -0.0084 0.1320 0.0055
v  -0.0071 0.0109 0.0067
v  -0.0071 0.1320 0.0067
v  -0.0056 0.0109 0.0077
v  -0.0056 0.1320 0.0077
v  -0.0038 0.0109 0.0085
v  -0.0038 0.1320 0.0085
v  -0.0019 0.0109 0.0089
v  -0.0019 0.1320 0.0089
v  0.0001 0.0109 0.0091
v  0.0001 0.1320 0.0091
v  0.0021 0.0109 0.0089
v  0.0021 0.1320 0.0089
v  0.0040 0.0109 0.0085
v  0.0040 0.1320 0.0085
v  0.0057 0.0109 0.0077
v  0.0057 0.1320 0.0077
v  0.0073 0.0109 0.0067
v  0.0073 0.1320 0.0067
v  0.0085 0.0109 0.0055
v  0.0085 0.1320 0.0055
v  0.0095 0.0109 0.0041
v  0.0095 0.1320 0.0041
v  0.0101 0.1320 0.0026
v  0.0101 0.0109 0.0026
# 72 vertices

vn 1.0000 0.0000 -0.0000
vn 0.0000 0.0000 -1.0000
vn -1.0000 0.0000 -0.0000
vn 0.0000 0.0000 1.0000
vn 0.0000 -1.0000 -0.0000
vn 0.0000 1.0000 -0.0000
vn 0.9922 0.0000 -0.1243
vn 0.9341 0.0000 -0.3571
vn 0.8292 0.0000 -0.5589
vn 0.6950 0.0000 -0.7190
vn 0.5457 0.0000 -0.8380
vn 0.3899 0.0000 -0.9209
vn 0.2343 0.0000 -0.9722
vn 0.0794 0.0000 -0.9968
vn -0.0791 0.0000 -0.9969
vn -0.2346 0.0000 -0.9721
vn -0.3899 0.0000 -0.9209
vn -0.5457 0.0000 -0.8380
vn -0.6947 0.0000 -0.7193
vn -0.8293 0.0000 -0.5588
vn -0.9341 0.0000 -0.3571
vn -0.9922 0.0000 -0.1244
vn -0.9923 0.0000 0.1235
vn -0.9341 0.0000 0.3571
vn -0.8293 0.0000 0.5588
vn -0.6947 0.0000 0.7193
vn -0.5457 0.0000 0.8380
vn -0.3899 0.0000 0.9209
vn -0.2346 0.0000 0.9721
vn -0.0791 0.0000 0.9969
vn 0.0794 0.0000 0.9968
vn 0.2343 0.0000 0.9722
vn 0.3898 0.0000 0.9209
vn 0.5457 0.0000 0.8380
vn 0.6951 0.0000 0.7190
vn 0.8292 0.0000 0.5590
vn 0.9341 0.0000 0.3571
vn 0.9924 0.0000 0.1234
# 38 vertex normals

vt 0.0000 1.0000 0.0000
vt 1.0000 1.0000 0.0000
vt 1.0000 0.0000 0.0000
vt 0.0000 0.0000 0.0000
# 4 texture coords

g default004
s off
f 1/1/1 2/2/1 3/3/1 
f 3/3/1 4/4/1 1/1/1 
f 5/1/2 6/2/2 2/3/2 
f 2/3/2 1/4/2 5/1/2 
f 7/1/3 8/2/3 6/3/3 
f 6/3/3 5/4/3 7/1/3 
f 4/1/4 3/2/4 8/3/4 
f 8/3/4 7/4/4 4/1/4 
f 4/1/5 7/2/5 5/3/5 
f 5/3/5 1/4/5 4/1/5 
f 8/1/6 3/2/6 2/3/6 
f 2/3/6 6/4/6 8/1/6 
s 1
f 9/4/7 10/4/7 11/4/7 
f 11/4/7 12/4/7 9/4/7 
f 13/4/8 14/4/8 10/4/8 
f 10/4/8 9/4/8 13/4/8 
f 15/4/9 16/4/9 14/4/9 
f 14/4/9 13/4/9 15/4/9 
f 17/4/10 18/4/10 16/4/10 
f 16/4/10 15/4/10 17/4/10 
f 19/4/11 20/4/11 18/4/11 
f 18/4/11 17/4/11 19/4/11 
f 21/4/12 22/4/12 20/4/12 
f 20/4/12 19/4/12 21/4/12 
f 23/4/13 24/4/13 22/4/13 
f 22/4/13 21/4/13 23/4/13 
f 25/4/14 26/4/14 24/4/14 
f 24/4/14 23/4/14 25/4/14 
f 27/4/15 28/4/15 26/4/15 
f 26/4/15 25/4/15 27/4/15 
f 29/4/16 30/4/16 28/4/16 
f 28/4/16 27/4/16 29/4/16 
f 31/4/17 32/4/17 30/4/17 
f 30/4/17 29/4/17 31/4/17 
f 33/4/18 34/4/18 32/4/18 
f 32/4/18 31/4/18 33/4/18 
f 35/4/19 36/4/19 34/4/19 
f 34/4/19 33/4/19 35/4/19 
f 37/4/20 38/4/20 36/4/20 
f 36/4/20 35/4/20 37/4/20 
f 39/4/21 40/4/21 38/4/21 
f 38/4/21 37/4/21 39/4/21 
f 41/4/22 42/4/22 40/4/22 
f 40/4/22 39/4/22 41/4/22 
f 43/4/23 44/4/23 42/4/23 
f 42/4/23 41/4/23 43/4/23 
f 45/4/24 46/4/24 44/4/24 
f 44/4/24 43/4/24 45/4/24 
f 47/4/25 48/4/25 46/4/25 
f 46/4/25 45/4/25 47/4/25 
f 49/4/26 50/4/26 48/4/26 
f 48/4/26 47/4/26 49/4/26 
f 51/4/27 52/4/27 50/4/27 
f 50/4/27 49/4/27 51/4/27 
f 53/4/28 54/4/28 52/4/28 
f 52/4/28 51/4/28 53/4/28 
f 55/4/29 56/4/29 54/4/29 
f 54/4/29 53/4/29 55/4/29 
f 57/4/30 58/4/30 56/4/30 
f 56/4/30 55/4/30 57/4/30 
f 59/4/31 60/4/31 58/4/31 
f 58/4/31 57/4/31 59/4/31 
f 61/4/32 62/4/32 60/4/32 
f 60/4/32 59/4/32 61/4/32 
f 63/4/33 64/4/33 62/4/33 
f 62/4/33 61/4/33 63/4/33 
f 65/4/34 66/4/34 64/4/34 
f 64/4/34 63/4/34 65/4/34 
f 67/4/35 68/4/35 66/4/35 
f 66/4/35 65/4/35 67/4/35 
f 69/4/36 70/4/36 68/4/36 
f 68/4/36 67/4/36 69/4/36 
f 20/4/6 22/4/6 24/4/6 
f 24/4/6 26/4/6 28/4/6 
f 28/4/6 30/4/6 32/4/6 
f 24/4/6 28/4/6 32/4/6 
f 32/4/6 34/4/6 36/4/6 
f 36/4/6 38/4/6 40/4/6 
f 32/4/6 36/4/6 40/4/6 
f 40/4/6 42/4/6 44/4/6 
f 44/4/6 46/4/6 48/4/6 
f 40/4/6 44/4/6 48/4/6 
f 32/4/6 40/4/6 48/4/6 
f 24/4/6 32/4/6 48/4/6 
f 48/4/6 50/4/6 52/4/6 
f 52/4/6 54/4/6 56/4/6 
f 48/4/6 52/4/6 56/4/6 
f 56/4/6 58/4/6 60/4/6 
f 60/4/6 62/4/6 64/4/6 
f 56/4/6 60/4/6 64/4/6 
f 48/4/6 56/4/6 64/4/6 
f 64/4/6 66/4/6 68/4/6 
f 68/4/6 70/4/6 71/4/6 
f 64/4/6 68/4/6 71/4/6 
f 71/4/6 11/4/6 10/4/6 
f 10/4/6 14/4/6 16/4/6 
f 71/4/6 10/4/6 16/4/6 
f 64/4/6 71/4/6 16/4/6 
f 48/4/6 64/4/6 16/4/6 
f 24/4/6 48/4/6 16/4/6 
f 20/4/6 24/4/6 16/4/6 
f 20/4/6 16/4/6 18/4/6 
f 72/4/37 71/4/37 70/4/37 
f 70/4/37 69/4/37 72/4/37 
f 12/4/38 11/4/38 71/4/38 
f 71/4/38 72/4/38 12/4/38 
f 65/4/5 63/4/5 61/4/5 
f 61/4/5 59/4/5 57/4/5 
f 57/4/5 55/4/5 53/4/5 
f 61/4/5 57/4/5 53/4/5 
f 53/4/5 51/4/5 49/4/5 
f 49/4/5 47/4/5 45/4/5 
f 53/4/5 49/4/5 45/4/5 
f 45/4/5 43/4/5 41/4/5 
f 41/4/5 39/4/5 37/4/5 
f 45/4/5 41/4/5 37/4/5 
f 53/4/5 45/4/5 37/4/5 
f 61/4/5 53/4/5 37/4/5 
f 37/4/5 35/4/5 33/4/5 
f 33/4/5 31/4/5 29/4/5 
f 37/4/5 33/4/5 29/4/5 
f 29/4/5 27/4/5 25/4/5 
f 25/4/5 23/4/5 21/4/5 
f 29/4/5 25/4/5 21/4/5 
f 37/4/5 29/4/5 21/4/5 
f 21/4/5 19/4/5 17/4/5 
f 17/4/5 15/4/5 13/4/5 
f 21/4/5 17/4/5 13/4/5 
f 13/4/5 9/4/5 12/4/5 
f 12/4/5 72/4/5 69/4/5 
f 13/4/5 12/4/5 69/4/5 
f 21/4/5 13/4/5 69/4/5 
f 37/4/5 21/4/5 69/4/5 
f 61/4/5 37/4/5 69/4/5 
f 65/4/5 61/4/5 69/4/5 
f 65/4/5 69/4/5 67/4/5 
# 136 faces

