# Blender v2.78 (sub 0) OBJ File: ''
# www.blender.org
mtllib reg.mtl
o Цилиндр
v -0.216720 0.037690 -0.684184
v -0.216720 0.039212 -0.698562
v -0.218181 0.039072 -0.698577
v -0.218181 0.037550 -0.684199
v -0.219585 0.038656 -0.698621
v -0.219585 0.037134 -0.684243
v -0.220880 0.037981 -0.698693
v -0.220880 0.036459 -0.684314
v -0.222015 0.037073 -0.698789
v -0.222015 0.035551 -0.684410
v -0.222946 0.035966 -0.698906
v -0.222946 0.034444 -0.684528
v -0.223638 0.034703 -0.699040
v -0.223638 0.033181 -0.684661
v -0.224064 0.033333 -0.699185
v -0.224064 0.031811 -0.684806
v -0.224208 0.031908 -0.699335
v -0.224208 0.030386 -0.684957
v -0.224064 0.030483 -0.699486
v -0.224064 0.028961 -0.685108
v -0.223638 0.029112 -0.699631
v -0.223638 0.027590 -0.685253
v -0.222946 0.027850 -0.699765
v -0.222946 0.026328 -0.685387
v -0.222015 0.026743 -0.699882
v -0.222015 0.025221 -0.685504
v -0.220880 0.025834 -0.699978
v -0.220880 0.024312 -0.685600
v -0.219585 0.025159 -0.700050
v -0.219585 0.023637 -0.685672
v -0.218181 0.024744 -0.700094
v -0.218181 0.023222 -0.685716
v -0.216720 0.024603 -0.700109
v -0.216720 0.023081 -0.685730
v -0.215259 0.024744 -0.700094
v -0.215259 0.023222 -0.685716
v -0.213854 0.025159 -0.700050
v -0.213854 0.023637 -0.685672
v -0.212560 0.025834 -0.699978
v -0.212560 0.024312 -0.685600
v -0.211425 0.026743 -0.699882
v -0.211425 0.025221 -0.685504
v -0.210494 0.027850 -0.699765
v -0.210494 0.026328 -0.685387
v -0.209802 0.029112 -0.699631
v -0.209802 0.027590 -0.685253
v -0.209376 0.030483 -0.699486
v -0.209376 0.028961 -0.685108
v -0.209232 0.031908 -0.699335
v -0.209232 0.030386 -0.684957
v -0.209376 0.033333 -0.699185
v -0.209376 0.031811 -0.684806
v -0.209802 0.034703 -0.699040
v -0.209802 0.033181 -0.684661
v -0.210494 0.035966 -0.698906
v -0.210494 0.034444 -0.684528
v -0.211425 0.037073 -0.698789
v -0.211425 0.035551 -0.684410
v -0.212560 0.037981 -0.698693
v -0.212560 0.036459 -0.684314
v -0.213854 0.038656 -0.698621
v -0.213854 0.037134 -0.684243
v -0.215259 0.039072 -0.698577
v -0.215259 0.037550 -0.684199
vn -0.0959 0.9899 0.1048
vn -0.2855 0.9530 0.1009
vn -0.4643 0.8808 0.0932
vn -0.6268 0.7748 0.0820
vn -0.7671 0.6380 0.0675
vn -0.8781 0.4758 0.0504
vn -0.9554 0.2938 0.0311
vn -0.9950 0.0994 0.0105
vn -0.9950 -0.0991 -0.0105
vn -0.9554 -0.2936 -0.0311
vn -0.8780 -0.4761 -0.0504
vn -0.7671 -0.6380 -0.0675
vn -0.6272 -0.7745 -0.0820
vn -0.4643 -0.8808 -0.0932
vn -0.2853 -0.9531 -0.1009
vn -0.0966 -0.9898 -0.1048
vn 0.0966 -0.9898 -0.1048
vn 0.2851 -0.9532 -0.1009
vn 0.4645 -0.8806 -0.0932
vn 0.6272 -0.7745 -0.0820
vn 0.7669 -0.6382 -0.0674
vn 0.8780 -0.4761 -0.0504
vn 0.9554 -0.2936 -0.0311
vn 0.9950 -0.0994 -0.0105
vn 0.9950 0.0994 0.0105
vn 0.9554 0.2938 0.0311
vn 0.8781 0.4758 0.0504
vn 0.7671 0.6380 0.0675
vn 0.6271 0.7746 0.0820
vn 0.4646 0.8806 0.0932
vn -0.0000 0.1053 -0.9944
vn 0.2850 0.9532 0.1009
vn 0.0963 0.9898 0.1048
vn -0.0000 -0.1053 0.9944
usemtl None.001
s off
f 1//1 2//1 3//1 4//1
f 4//2 3//2 5//2 6//2
f 6//3 5//3 7//3 8//3
f 8//4 7//4 9//4 10//4
f 10//5 9//5 11//5 12//5
f 12//6 11//6 13//6 14//6
f 14//7 13//7 15//7 16//7
f 16//8 15//8 17//8 18//8
f 18//9 17//9 19//9 20//9
f 20//10 19//10 21//10 22//10
f 22//11 21//11 23//11 24//11
f 24//12 23//12 25//12 26//12
f 26//13 25//13 27//13 28//13
f 28//14 27//14 29//14 30//14
f 30//15 29//15 31//15 32//15
f 32//16 31//16 33//16 34//16
f 34//17 33//17 35//17 36//17
f 36//18 35//18 37//18 38//18
f 38//19 37//19 39//19 40//19
f 40//20 39//20 41//20 42//20
f 42//21 41//21 43//21 44//21
f 44//22 43//22 45//22 46//22
f 46//23 45//23 47//23 48//23
f 48//24 47//24 49//24 50//24
f 50//25 49//25 51//25 52//25
f 52//26 51//26 53//26 54//26
f 54//27 53//27 55//27 56//27
f 56//28 55//28 57//28 58//28
f 58//29 57//29 59//29 60//29
f 60//30 59//30 61//30 62//30
f 3//31 2//31 63//31 61//31 59//31 57//31 55//31 53//31 51//31 49//31 47//31 45//31 43//31 41//31 39//31 37//31 35//31 33//31 31//31 29//31 27//31 25//31 23//31 21//31 19//31 17//31 15//31 13//31 11//31 9//31 7//31 5//31
f 62//32 61//32 63//32 64//32
f 64//33 63//33 2//33 1//33
f 1//34 4//34 6//34 8//34 10//34 12//34 14//34 16//34 18//34 20//34 22//34 24//34 26//34 28//34 30//34 32//34 34//34 36//34 38//34 40//34 42//34 44//34 46//34 48//34 50//34 52//34 54//34 56//34 58//34 60//34 62//34 64//34
