# 3ds Max Wavefront OBJ Exporter v0.97b - (c)2007 guruware
# File Created: 30.05.2019 23:40:37

#
# object default001
#

v  -0.3741 0.0043 0.2727
v  -0.3741 0.0043 -0.2731
v  -0.1459 0.0043 -0.2731
v  -0.1459 0.0043 0.2727
v  -0.1459 0.0225 -0.2731
v  -0.3741 0.0225 -0.2731
v  -0.3741 0.0225 0.2727
v  -0.1459 0.0225 0.2727
v  -0.3477 0.0214 0.0154
v  -0.3477 0.0214 -0.0210
v  -0.3113 0.0214 -0.0210
v  -0.3113 0.0214 0.0154
v  -0.3113 1.0252 -0.0210
v  -0.3477 1.0252 -0.0210
v  -0.3477 1.0252 0.0154
v  -0.3113 1.0252 0.0154
v  0.1007 0.9829 -0.0178
v  0.1007 0.9514 -0.0178
v  -0.3336 0.9514 -0.0178
v  -0.3336 0.9829 -0.0178
v  0.1007 0.9829 0.0137
v  -0.3336 0.9829 0.0137
v  0.1007 0.9514 0.0137
v  -0.3336 0.9514 0.0137
# 24 vertices

vn 0.0000 -1.0000 -0.0000
vn 0.0000 1.0000 -0.0000
vn 0.0000 0.0000 -1.0000
vn 1.0000 0.0000 -0.0000
vn 0.0000 0.0000 1.0000
vn -1.0000 0.0001 -0.0000
vn -1.0000 0.0000 -0.0000
# 7 vertex normals

vt 0.0000 0.0000 0.0000
# 1 texture coords

g default001
s 1
f 1/1/1 2/1/1 3/1/1 
f 3/1/1 4/1/1 1/1/1 
f 5/1/2 6/1/2 7/1/2 
f 7/1/2 8/1/2 5/1/2 
f 3/1/3 2/1/3 6/1/3 
f 6/1/3 5/1/3 3/1/3 
f 4/1/4 3/1/4 5/1/4 
f 5/1/4 8/1/4 4/1/4 
f 1/1/5 4/1/5 8/1/5 
f 8/1/5 7/1/5 1/1/5 
f 7/1/6 6/1/6 2/1/6 
f 2/1/6 1/1/6 7/1/6 
f 9/1/1 10/1/1 11/1/1 
f 11/1/1 12/1/1 9/1/1 
f 13/1/2 14/1/2 15/1/2 
f 15/1/2 16/1/2 13/1/2 
f 11/1/3 10/1/3 14/1/3 
f 14/1/3 13/1/3 11/1/3 
f 12/1/4 11/1/4 13/1/4 
f 13/1/4 16/1/4 12/1/4 
f 9/1/5 12/1/5 16/1/5 
f 16/1/5 15/1/5 9/1/5 
f 15/1/7 14/1/7 10/1/7 
f 10/1/7 9/1/7 15/1/7 
f 17/1/3 18/1/3 19/1/3 
f 19/1/3 20/1/3 17/1/3 
f 21/1/2 17/1/2 20/1/2 
f 20/1/2 22/1/2 21/1/2 
f 23/1/5 21/1/5 22/1/5 
f 22/1/5 24/1/5 23/1/5 
f 18/1/1 23/1/1 24/1/1 
f 24/1/1 19/1/1 18/1/1 
f 18/1/4 17/1/4 21/1/4 
f 21/1/4 23/1/4 18/1/4 
f 24/1/7 22/1/7 20/1/7 
f 20/1/7 19/1/7 24/1/7 
# 36 faces

