# 3ds Max Wavefront OBJ Exporter v0.97b - (c)2007 guruware
# File Created: 29.05.2019 12:36:01

#
# object default
#

v  -0.1231 0.0000 -0.7000
v  0.1149 0.0000 -0.7000
v  0.1149 0.0000 0.7000
v  -0.1231 0.0000 0.7000
v  0.1149 0.0322 0.7000
v  0.1149 0.0322 -0.7000
v  -0.1231 0.0322 -0.7000
v  -0.1231 0.0322 0.7000
# 8 vertices

vn 0.0000 -1.0000 -0.0000
vn 0.0000 1.0000 -0.0000
vn 1.0000 0.0000 -0.0000
vn 0.0000 0.0000 1.0000
vn -1.0000 0.0000 -0.0000
vn 0.0000 0.0000 -1.0000
# 6 vertex normals

vt 0.7011 0.7740 0.0000
vt 0.3505 0.7740 0.0000
vt 0.3505 0.0000 0.0000
vt 0.7011 0.0000 0.0000
vt 0.0000 0.7740 0.0000
vt 0.0000 0.0000 0.0000
vt 0.7118 0.7740 0.0000
vt 0.7118 0.0000 0.0000
vt 0.7226 0.0000 0.0000
vt 0.7226 0.7740 0.0000
vt 0.7226 0.5000 0.0000
vt 0.7334 0.0000 0.0000
vt 0.7334 0.5000 0.0000
vt 0.7226 1.0000 0.0000
vt 0.7334 1.0000 0.0000
# 15 texture coords

g default
s 1
f 1/1/1 2/2/1 3/3/1 
f 3/3/1 4/4/1 1/1/1 
f 5/3/2 6/2/2 7/5/2 
f 7/5/2 8/6/2 5/3/2 
f 3/7/3 2/8/3 6/9/3 
f 6/9/3 5/10/3 3/7/3 
f 4/11/4 3/9/4 5/12/4 
f 5/12/4 8/13/4 4/11/4 
f 1/1/5 4/4/5 8/8/5 
f 8/8/5 7/7/5 1/1/5 
f 7/14/6 6/11/6 2/13/6 
f 2/13/6 1/15/6 7/14/6 
# 12 faces

