# Blender v2.78 (sub 0) OBJ File: 'Room.obj'
# www.blender.org
mtllib List.mtl
o Плоскость.035_Плоскость.005
v -0.151550 0.006520 -1.680357
v 0.730430 0.006520 -1.184421
v -0.079630 0.006519 0.256200
v -0.961607 0.006519 -0.239733
v -0.080962 0.015252 0.260069
v -0.962942 0.015252 -0.235864
v 0.729096 0.015253 -1.180552
v -0.152884 0.015253 -1.676485
v -0.924435 0.015252 -0.246653
v -0.142095 0.015253 -1.637978
v 0.690589 0.015253 -1.169764
v -0.091751 0.015252 0.221563
vt 0.4566 0.0880
vt 0.9063 0.0880
vt 0.9063 0.9937
vt 0.4566 0.9937
vt 0.9066 0.9959
vt 0.4569 0.9959
vt 0.9144 0.9959
vt 0.9105 0.9937
vt 0.9105 0.0880
vt 0.9144 0.0903
vt 0.0065 0.0903
vt 0.0068 0.0880
vt 0.4563 0.0903
vt 0.9066 0.9959
vt 0.9066 0.0903
vt 0.9105 0.0880
vt 0.9105 0.9937
vt 0.4437 0.9805
vt 0.4437 0.1058
vt 0.4563 0.9959
vt 0.0191 0.1058
vt 0.0191 0.9805
vt 0.0065 0.9959
vn 0.0000 -1.0000 -0.0000
vn -0.4451 -0.4186 0.7916
vn 0.8686 -0.0838 0.4884
vn 0.4451 0.4188 -0.7915
vn -0.8686 0.0838 -0.4884
vn -0.0000 1.0000 0.0000
usemtl Материал.004
s 1
f 1/1/1 2/2/1 3/3/1 4/4/1
f 4/4/2 3/3/2 5/5/2 6/6/2
f 2/7/3 7/8/3 5/9/3 3/10/3
f 7/11/4 2/12/4 1/1/4 8/13/4
f 6/14/5 8/15/5 1/16/5 4/17/5
f 9/18/6 10/19/6 8/13/6 6/20/6
f 10/19/6 11/21/6 7/11/6 8/13/6
f 12/22/6 9/18/6 6/20/6 5/23/6
f 11/21/6 12/22/6 5/23/6 7/11/6
f 9/18/6 12/22/6 11/21/6 10/19/6
