# Blender v2.78 (sub 0) OBJ File: ''
# www.blender.org
mtllib wall.mtl
o Cube.001_Cube
v -0.381670 0.117677 0.693689
v -0.381670 1.137677 0.693689
v -0.381670 1.137678 -0.696311
v -0.381670 0.117678 -0.696311
v -0.351670 1.137678 -0.696311
v -0.351670 0.117678 -0.696311
v -0.351670 1.137677 0.693689
v -0.351670 0.117677 0.693689
vt 0.0000 0.0000
vt 1.0000 0.0000
vt 1.0000 1.0000
vt 0.0000 1.0000
vt 0.0000 0.0000
vt 1.0000 0.0000
vt 1.0000 1.0000
vt 0.0000 1.0000
vt 0.0000 0.0000
vt 1.0000 0.0000
vt 1.0000 1.0000
vt 0.0000 1.0000
vt 0.0000 0.0000
vt 1.0000 0.0000
vt 1.0000 1.0000
vt 0.0000 1.0000
vt 1.0000 0.0000
vt 1.0000 1.0000
vt 0.0000 0.0000
vt 0.0000 1.0000
vn -0.5774 -0.5774 0.5773
vn -0.5774 0.5773 0.5774
vn -0.5774 0.5774 -0.5773
vn -0.5774 -0.5773 -0.5774
vn 0.5774 0.5774 -0.5773
vn 0.5774 -0.5773 -0.5774
vn 0.5774 0.5773 0.5774
vn 0.5774 -0.5774 0.5773
usemtl Material.008
s 1
f 1/1/1 2/2/2 3/3/3 4/4/4
f 4/5/4 3/6/3 5/7/5 6/8/6
f 6/9/6 5/10/5 7/11/7 8/12/8
f 8/13/8 7/14/7 2/15/2 1/16/1
f 4/5/4 6/17/6 8/18/8 1/16/1
f 5/19/5 3/6/3 2/15/2 7/20/7
